<mxfile host="drawio-plugin" modified="2023-09-11T18:26:22.595Z" agent="5.0 (Windows NT 6.2; Win64; x64) AppleWebKit/537.36 (KHTML, like Gecko) Chrome/97.0.4692.45 Safari/537.36" etag="h4owPdBtXoExU4KVNVrE" version="15.5.4" type="embed"><diagram name="Page-1" id="929967ad-93f9-6ef4-fab6-5d389245f69c"><mxGraphModel dx="899" dy="400" grid="1" gridSize="10" guides="1" tooltips="1" connect="1" arrows="1" fold="1" page="1" pageScale="1.5" pageWidth="1169" pageHeight="826" background="none" math="0" shadow="0"><root><mxCell id="0" style=";html=1;"/><mxCell id="1" style=";html=1;" parent="0"/><mxCell id="a0IgpELsFQVMaeUdZJJS-10" style="edgeStyle=orthogonalEdgeStyle;rounded=1;orthogonalLoop=1;jettySize=auto;html=1;entryX=0.521;entryY=0.017;entryDx=0;entryDy=0;entryPerimeter=0;endArrow=open;endFill=0;" parent="1" source="a0IgpELsFQVMaeUdZJJS-2" target="a0IgpELsFQVMaeUdZJJS-6" edge="1"><mxGeometry relative="1" as="geometry"/></mxCell><mxCell id="a0IgpELsFQVMaeUdZJJS-2" value="Main (Client)" style="swimlane;fontStyle=1;align=center;verticalAlign=top;childLayout=stackLayout;horizontal=1;startSize=26;horizontalStack=0;resizeParent=1;resizeParentMax=0;resizeLast=0;collapsible=1;marginBottom=0;" parent="1" vertex="1"><mxGeometry x="650" y="300" width="160" height="120" as="geometry"/></mxCell><mxCell id="a0IgpELsFQVMaeUdZJJS-3" value="+ inputText: String&#10;" style="text;strokeColor=none;fillColor=none;align=left;verticalAlign=top;spacingLeft=4;spacingRight=4;overflow=hidden;rotatable=0;points=[[0,0.5],[1,0.5]];portConstraint=eastwest;" parent="a0IgpELsFQVMaeUdZJJS-2" vertex="1"><mxGeometry y="26" width="160" height="34" as="geometry"/></mxCell><mxCell id="a0IgpELsFQVMaeUdZJJS-4" value="" style="line;strokeWidth=1;fillColor=none;align=left;verticalAlign=middle;spacingTop=-1;spacingLeft=3;spacingRight=3;rotatable=0;labelPosition=right;points=[];portConstraint=eastwest;strokeColor=inherit;" parent="a0IgpELsFQVMaeUdZJJS-2" vertex="1"><mxGeometry y="60" width="160" height="8" as="geometry"/></mxCell><mxCell id="a0IgpELsFQVMaeUdZJJS-5" value="+ main() " style="text;strokeColor=none;fillColor=none;align=left;verticalAlign=top;spacingLeft=4;spacingRight=4;overflow=hidden;rotatable=0;points=[[0,0.5],[1,0.5]];portConstraint=eastwest;" parent="a0IgpELsFQVMaeUdZJJS-2" vertex="1"><mxGeometry y="68" width="160" height="52" as="geometry"/></mxCell><mxCell id="a0IgpELsFQVMaeUdZJJS-15" style="edgeStyle=orthogonalEdgeStyle;rounded=1;orthogonalLoop=1;jettySize=auto;html=1;endArrow=open;endFill=0;startArrow=diamondThin;startFill=0;targetPerimeterSpacing=1;sourcePerimeterSpacing=1;shadow=0;" parent="1" source="a0IgpELsFQVMaeUdZJJS-6" target="a0IgpELsFQVMaeUdZJJS-11" edge="1"><mxGeometry relative="1" as="geometry"><Array as="points"><mxPoint x="680" y="635"/><mxPoint x="540" y="635"/></Array></mxGeometry></mxCell><mxCell id="a0IgpELsFQVMaeUdZJJS-20" style="edgeStyle=orthogonalEdgeStyle;rounded=1;sketch=0;orthogonalLoop=1;jettySize=auto;html=1;shadow=0;startArrow=diamondThin;startFill=0;endArrow=open;endFill=0;sourcePerimeterSpacing=1;targetPerimeterSpacing=1;" parent="1" source="a0IgpELsFQVMaeUdZJJS-6" target="a0IgpELsFQVMaeUdZJJS-16" edge="1"><mxGeometry relative="1" as="geometry"/></mxCell><mxCell id="a0IgpELsFQVMaeUdZJJS-6" value="Facade" style="swimlane;fontStyle=1;align=center;verticalAlign=top;childLayout=stackLayout;horizontal=1;startSize=26;horizontalStack=0;resizeParent=1;resizeParentMax=0;resizeLast=0;collapsible=1;marginBottom=0;" parent="1" vertex="1"><mxGeometry x="500" y="480" width="440" height="120" as="geometry"/></mxCell><mxCell id="a0IgpELsFQVMaeUdZJJS-7" value="+ crypter: Crypter&#10;+ decrypter: Decrypter" style="text;strokeColor=none;fillColor=none;align=left;verticalAlign=top;spacingLeft=4;spacingRight=4;overflow=hidden;rotatable=0;points=[[0,0.5],[1,0.5]];portConstraint=eastwest;" parent="a0IgpELsFQVMaeUdZJJS-6" vertex="1"><mxGeometry y="26" width="440" height="34" as="geometry"/></mxCell><mxCell id="a0IgpELsFQVMaeUdZJJS-8" value="" style="line;strokeWidth=1;fillColor=none;align=left;verticalAlign=middle;spacingTop=-1;spacingLeft=3;spacingRight=3;rotatable=0;labelPosition=right;points=[];portConstraint=eastwest;strokeColor=inherit;" parent="a0IgpELsFQVMaeUdZJJS-6" vertex="1"><mxGeometry y="60" width="440" height="8" as="geometry"/></mxCell><mxCell id="a0IgpELsFQVMaeUdZJJS-9" value="+ crypt(String) { crypter.crypt() }&#10;+ decrypt(String) { decrypter.decrypt() }" style="text;strokeColor=none;fillColor=none;align=left;verticalAlign=top;spacingLeft=4;spacingRight=4;overflow=hidden;rotatable=0;points=[[0,0.5],[1,0.5]];portConstraint=eastwest;" parent="a0IgpELsFQVMaeUdZJJS-6" vertex="1"><mxGeometry y="68" width="440" height="52" as="geometry"/></mxCell><mxCell id="a0IgpELsFQVMaeUdZJJS-11" value="Crypter" style="swimlane;fontStyle=1;align=center;verticalAlign=top;childLayout=stackLayout;horizontal=1;startSize=26;horizontalStack=0;resizeParent=1;resizeParentMax=0;resizeLast=0;collapsible=1;marginBottom=0;" parent="1" vertex="1"><mxGeometry x="450" y="670" width="190" height="90" as="geometry"/></mxCell><mxCell id="a0IgpELsFQVMaeUdZJJS-12" value="+ input: String" style="text;strokeColor=none;fillColor=none;align=left;verticalAlign=top;spacingLeft=4;spacingRight=4;overflow=hidden;rotatable=0;points=[[0,0.5],[1,0.5]];portConstraint=eastwest;" parent="a0IgpELsFQVMaeUdZJJS-11" vertex="1"><mxGeometry y="26" width="190" height="24" as="geometry"/></mxCell><mxCell id="a0IgpELsFQVMaeUdZJJS-13" value="" style="line;strokeWidth=1;fillColor=none;align=left;verticalAlign=middle;spacingTop=-1;spacingLeft=3;spacingRight=3;rotatable=0;labelPosition=right;points=[];portConstraint=eastwest;strokeColor=inherit;" parent="a0IgpELsFQVMaeUdZJJS-11" vertex="1"><mxGeometry y="50" width="190" height="8" as="geometry"/></mxCell><mxCell id="a0IgpELsFQVMaeUdZJJS-14" value="+ crypt(String)" style="text;strokeColor=none;fillColor=none;align=left;verticalAlign=top;spacingLeft=4;spacingRight=4;overflow=hidden;rotatable=0;points=[[0,0.5],[1,0.5]];portConstraint=eastwest;" parent="a0IgpELsFQVMaeUdZJJS-11" vertex="1"><mxGeometry y="58" width="190" height="32" as="geometry"/></mxCell><mxCell id="a0IgpELsFQVMaeUdZJJS-16" value="Decrypter" style="swimlane;fontStyle=1;align=center;verticalAlign=top;childLayout=stackLayout;horizontal=1;startSize=26;horizontalStack=0;resizeParent=1;resizeParentMax=0;resizeLast=0;collapsible=1;marginBottom=0;" parent="1" vertex="1"><mxGeometry x="770" y="690" width="170" height="90" as="geometry"/></mxCell><mxCell id="a0IgpELsFQVMaeUdZJJS-17" value="+ input: String" style="text;strokeColor=none;fillColor=none;align=left;verticalAlign=top;spacingLeft=4;spacingRight=4;overflow=hidden;rotatable=0;points=[[0,0.5],[1,0.5]];portConstraint=eastwest;" parent="a0IgpELsFQVMaeUdZJJS-16" vertex="1"><mxGeometry y="26" width="170" height="24" as="geometry"/></mxCell><mxCell id="a0IgpELsFQVMaeUdZJJS-18" value="" style="line;strokeWidth=1;fillColor=none;align=left;verticalAlign=middle;spacingTop=-1;spacingLeft=3;spacingRight=3;rotatable=0;labelPosition=right;points=[];portConstraint=eastwest;strokeColor=inherit;" parent="a0IgpELsFQVMaeUdZJJS-16" vertex="1"><mxGeometry y="50" width="170" height="8" as="geometry"/></mxCell><mxCell id="a0IgpELsFQVMaeUdZJJS-19" value="+ decrypt(String)" style="text;strokeColor=none;fillColor=none;align=left;verticalAlign=top;spacingLeft=4;spacingRight=4;overflow=hidden;rotatable=0;points=[[0,0.5],[1,0.5]];portConstraint=eastwest;" parent="a0IgpELsFQVMaeUdZJJS-16" vertex="1"><mxGeometry y="58" width="170" height="32" as="geometry"/></mxCell></root></mxGraphModel></diagram></mxfile>